<?xml version="1.0" standalone="no"?><!DOCTYPE svg PUBLIC "-//W3C//DTD SVG 1.1//EN" "http://www.w3.org/Graphics/SVG/1.1/DTD/svg11.dtd"><svg t="1606809950161" class="icon" viewBox="0 0 1024 1024" version="1.1" xmlns="http://www.w3.org/2000/svg" p-id="3828" width="40" height="40" xmlns:xlink="http://www.w3.org/1999/xlink"><defs><style type="text/css"></style></defs><path d="M0 0h1024v1024H0z" fill="#2c2c2c" fill-opacity="0" p-id="3829"></path><path d="M511.888 48a60 60 0 0 1 57.152 78.352l322.848 182.624v380.224a60.016 60.016 0 1 1-57.296 98.144L512 969.792 189.2 787.344a60 60 0 1 1-57.28-98.144l0.192-380.224L454.816 126.528A60 60 0 0 1 511.904 48z m159.152 645.872l-2.56 2.704c-33.008 32.992-90.736 32.896-152.32 3.808l-4.992-2.416-4.992 2.416c-61.6 29.104-119.328 29.168-152.304-3.808-10.304-10.32-17.392-23.04-21.36-37.568l-131.248 71.376a60 60 0 0 1-0.256 36.048L512 942.208l310.784-175.76a59.952 59.952 0 0 1-0.272-36.064l-132.48-72.112a84.288 84.288 0 0 1-18.992 35.6zM143.888 712l-1.856 0.048-1.84 0.144-1.792 0.224-3.936 0.832a36.016 36.016 0 1 0 35.808 59.248l1.248-1.408 1.968-2.592 0.688-1.04 1.008-1.68 1.248-2.336 0.64-1.472 0.592-1.488a35.744 35.744 0 0 0 2.24-12.48 36.064 36.064 0 0 0-3.04-14.48l-1.824-3.568-1.056-1.728-2.144-2.912-1.792-2.048-2.352-2.272a35.952 35.952 0 0 0-12.592-7.2l-2.864-0.816-1.36-0.304-2.992-0.464-2.192-0.16-1.808-0.048zM466.64 147.408L156.096 322.992l-0.192 366.208a59.968 59.968 0 0 1 33.92 20.192l138.944-75.584c-1.024-26.992 6.32-57.952 21.52-89.984l2.208-4.544-1.024-2.08c-30.496-62.704-31.088-121.728 2.4-155.216 31.84-31.84 86.784-32.88 146.064-6.656l-0.016-208.528a59.952 59.952 0 0 1-33.28-19.392z m90.608-0.128a59.952 59.952 0 0 1-33.44 19.52V374.72c58.72-25.584 113.056-24.32 144.656 7.28 33.44 33.44 32.912 92.32 2.528 154.96l-1.168 2.352 1.056 2.048c15.84 32.56 23.6 64.128 22.72 91.648l140.368 76.4a59.968 59.968 0 0 1 33.904-20.192l0.016-366.224L557.248 147.28zM522.752 399.84l-4.864 2.448-6.688 3.456-5.12-2.64-7.472-3.728c-54.752-26.448-103.616-26.848-128.896-1.568-23.472 23.456-24.8 67.248-3.744 117.152 14.4-23.456 32.48-46.304 53.536-67.36 5.184-5.184 10.48-10.192 15.872-15.008l8.16-7.104 14.464 17.12c-7.76 6.56-15.328 13.504-22.656 20.832-23.04 23.056-42.272 48.32-56.56 73.968l-3.776 7.008-2.32 4.528c-27.84 55.984-28.672 106.08-2.976 131.776 23.472 23.472 67.248 24.8 117.152 3.744a363.68 363.68 0 0 1-56.432-43.04 44.8 44.8 0 1 1 15.6-16.096 333.168 333.168 0 0 0 63.296 46.336l5.264 2.848 6.688 3.44c54.032 26.784 102.72 28.384 129.024 4.96l2.32-2.192c23.472-23.456 24.8-67.248 3.76-117.136a366.72 366.72 0 0 1-47.472 61.12l-6.08 6.224-15.84-15.84c23.056-23.056 42.272-48.32 56.56-73.952l1.04-1.872a325.136 325.136 0 0 0-37.008-53.456A44.8 44.8 0 1 1 624 470.592c12.192 14.304 23.04 29.2 32.352 44.384 21.056-49.92 19.712-93.696-3.744-117.152-25.44-25.44-74.768-24.864-129.872 2.032zM407.088 580.8a22.4 22.4 0 1 0 0 44.8 22.4 22.4 0 0 0 0-44.8z m179.2-156.8a22.4 22.4 0 1 0 0 44.8 22.4 22.4 0 0 0 0-44.8z m-74.4-352a36 36 0 0 0-34.72 45.536l0.848 2.704 1.344 3.2 0.688 1.376 1.12 1.952 1.328 2.016 1.312 1.728 1.792 2.08 0.896 0.928 1.952 1.808c4.256 3.648 9.344 6.32 14.96 7.68l3.424 0.624 1.696 0.208 1.504 0.112 1.856 0.048 3.232-0.144 2.912-0.384 1.728-0.336 1.408-0.368 2.72-0.816c4.592-1.616 8.736-4.144 12.256-7.36l2.256-2.272 1.568-1.808 1.312-1.744 1.184-1.76 1.376-2.4 1.328-2.864 1.088-3.008 0.784-2.88 0.384-2.032a36 36 0 0 0-35.52-41.824z m358.16 641.36l-2.24 0.72c-5.568 1.984-10.48 5.28-14.4 9.536l-1.888 2.224-1.104 1.488-1.024 1.552-1.2 2.032-1.04 2.112a35.744 35.744 0 0 0-1.488 3.808l-0.8 2.88a36.096 36.096 0 0 0 0.48 18.48l0.768 2.288 0.896 2.192 0.992 2.032 0.688 1.264c0.64 1.088 1.328 2.16 2.08 3.184l1.504 1.936 1.248 1.408 0.848 0.896a36 36 0 1 0 34.448-60.272l-2.288-0.512-2.88-0.416-1.28-0.112-2.48-0.08c-1.232 0-2.464 0.064-3.68 0.192l-2.72 0.384-1.44 0.288-2 0.496z" fill="#2c2c2c" p-id="3830"></path></svg>